<svg width="284" height="284" viewBox="0 0 284 284" fill="none" xmlns="http://www.w3.org/2000/svg">
<path d="M82.6483 24.85C81.4834 25.4602 80.2076 26.8469 79.4311 28.3445C76.935 33.0594 79.0428 39.9375 83.8686 43.1547C85.699 44.375 86.8084 44.6523 89.36 44.6523C92.2444 44.6523 92.7436 44.4859 94.574 42.7109C97.0701 40.2703 97.9022 37.4414 97.1256 33.725C95.517 26.4586 88.1397 21.9102 82.6483 24.85ZM89.5819 31.6172C91.4123 33.5586 91.9115 37.4414 90.3584 38.4398C88.0287 39.9375 84.3123 36.6094 84.3123 32.9484C84.3123 29.6203 87.0303 28.9547 89.5819 31.6172Z" fill="#009FAF"/>
<path d="M104.281 31.4508C100.62 34.0023 99.3445 37.8297 100.731 41.9898C102.284 46.5938 105.723 49.3672 109.828 49.3672C117.427 49.3672 119.868 38.7172 113.6 32.893C110.993 30.4523 106.666 29.7867 104.281 31.4508ZM110.549 38.7172C112.491 42.0453 110.494 45.1516 107.887 42.7109C106.389 41.3242 105.723 39.2719 106.223 37.6633C106.777 35.8883 109.273 36.4984 110.549 38.7172Z" fill="#009FAF"/>
<path d="M62.1249 36.3875C59.7397 38.4399 58.6304 40.825 58.6304 44.0977C58.6304 50.2547 63.789 55.5797 69.7796 55.5797C74.2171 55.5797 77.6562 51.8078 77.6562 46.9266C77.6562 44.0422 76.1585 39.993 74.439 38.1071C71.4437 34.7789 65.1202 33.8914 62.1249 36.3875ZM68.5038 41.1578C71.2218 42.3782 72.664 47.7586 70.7226 49.3672C68.4483 51.2531 63.789 46.2055 64.621 42.8219C65.1757 40.4922 66.1741 40.1039 68.5038 41.1578Z" fill="#009FAF"/>
<path d="M190.424 49.1453C186.819 50.9203 184.988 56.4117 186.375 61.2375C187.762 66.2297 193.142 70.3899 197.191 69.6688C201.851 68.7813 204.291 65.5086 204.291 60.1836C204.291 51.8078 196.914 45.9836 190.424 49.1453ZM197.302 56.5227C200.575 61.4039 197.025 66.3961 193.364 62.0695C191.755 60.1836 191.367 56.2453 192.588 55.025C193.808 53.8047 195.971 54.5258 197.302 56.5227Z" fill="#009FAF"/>
<path d="M84.59 49.9219C79.3204 52.6399 76.4915 57.5211 75.1603 66.0633C74.772 68.9477 73.829 72.775 73.1634 74.6055C71.1111 80.3742 72.4978 85.9211 77.0462 90.0258C80.0415 92.7438 82.2603 93.7977 85.6993 94.1305C91.3571 94.7406 95.6282 92.3 98.0134 87.086C99.9548 82.7594 102.395 81.4281 107.166 81.9274C111.659 82.3711 113.988 81.761 116.54 79.4867C119.979 76.3805 121.144 73.6625 121.088 69.0586C121.033 60.9602 117.095 56.1344 108.996 54.193C107.166 53.7492 103.56 52.418 100.953 51.2531C96.904 49.4781 95.5728 49.1453 91.5236 48.9789C87.6407 48.8125 86.4204 48.9789 84.59 49.9219ZM100.121 57.2438C102.284 58.2977 105.391 59.518 107.055 59.9063C112.934 61.2375 114.599 62.9571 115.209 68.1711C115.542 71.0555 114.709 73.2188 112.657 75.1047C111.659 75.9922 110.605 76.2141 106.056 76.2141C100.898 76.2696 100.509 76.3805 97.7915 78.1C95.5728 79.5422 94.5189 80.7071 93.4095 83.0367C91.3017 87.3078 90.1923 88.1953 87.0861 88.1953C84.0353 88.1953 81.4282 86.6422 79.4868 83.8133C77.9337 81.5391 77.8782 79.3203 79.265 75.2711C79.8751 73.607 80.4853 70.7227 80.7071 68.9477C81.4837 61.9031 83.8134 56.6891 86.7532 55.4133C87.3634 55.136 89.804 55.025 92.0782 55.0805C95.5173 55.2469 96.904 55.6352 100.121 57.2438Z" fill="#009FAF"/>
<path d="M170.622 56.0234C164.465 57.9648 162.745 66.8953 167.405 73.1633C169.013 75.2711 172.508 77.0461 175.226 77.1016C179.164 77.1016 182.714 73.3852 183.38 68.5594C183.712 66.3961 183.49 65.4531 181.993 62.4578C179.441 57.2437 174.948 54.6922 170.622 56.0234ZM175.503 63.1789C177.611 65.3422 178.055 68.7812 176.501 70.3344C175.059 71.7766 173.395 71.3883 171.842 69.225C170.566 67.3391 170.289 63.7336 171.398 62.4023C172.452 61.1266 173.783 61.4039 175.503 63.1789Z" fill="#009FAF"/>
<path d="M55.5242 58.6305C51.3086 62.8461 52.1961 69.0031 57.5765 73.0523C59.6289 74.6055 60.4609 74.8828 62.957 74.8828C74.1617 74.8828 72.1094 57.632 60.7383 56.6891C57.7984 56.4672 57.632 56.5227 55.5242 58.6305ZM63.2898 64.2328C64.6765 66.0078 64.5656 68.9477 63.068 69.225C61.7922 69.5023 58.7969 66.3961 58.7969 64.7875C58.7969 61.9586 61.2375 61.6813 63.2898 64.2328Z" fill="#009FAF"/>
<path d="M210.338 59.3515C207.453 61.1265 206.233 63.5117 206.455 67.1726C206.843 72.664 209.894 76.6023 214.553 77.4344C217.105 77.9336 219.934 76.4914 221.709 73.8289C223.484 71.2219 223.484 66.1187 221.764 62.6797C219.601 58.5195 214.276 56.9664 210.338 59.3515ZM216.716 66.3961C217.715 68.7812 217.16 71.1664 215.607 71.4437C214.165 71.7211 213.055 70.6117 212.667 68.5039C212.168 65.8414 212.834 64.3437 214.442 64.3437C215.496 64.3437 216.051 64.7875 216.716 66.3961Z" fill="#009FAF"/>
<path d="M189.037 73.8289C186.43 74.6055 182.326 78.1555 180.495 81.3172C179.663 82.7039 178.443 85.6992 177.722 87.9735C177.001 90.2477 175.614 93.6313 174.615 95.5172C170.4 103.616 172.951 112.324 180.717 116.318C187.54 119.868 192.532 118.315 197.912 111.048C199.743 108.552 202.794 107.72 205.733 108.941C210.559 110.827 215.551 109.551 219.157 105.557C221.708 102.728 222.651 99.9547 222.651 95.6282C222.596 89.1383 219.046 84.2571 212.612 81.8164C211.169 81.2617 208.729 79.9305 207.176 78.8766C200.686 74.2727 194.029 72.4422 189.037 73.8289ZM197.469 80.1524C198.8 80.5961 201.074 81.8719 202.627 82.9813C204.125 84.0907 207.453 85.9766 209.949 87.1414C212.612 88.4172 214.941 89.9703 215.496 90.7469C217.604 94.0196 217.215 98.7899 214.553 101.841C212.889 103.727 212.667 103.782 210.004 103.505C199.465 102.229 197.302 102.673 193.586 106.999C192.365 108.386 190.868 110.105 190.313 110.771C188.982 112.324 185.543 112.491 182.991 111.159C180.939 110.105 178.054 105.723 178.054 103.616C178.054 102.728 178.887 100.343 179.94 98.2907C180.994 96.1828 182.27 93.0211 182.769 91.1907C185.044 83.4805 188.483 79.3203 192.698 79.3203C194.029 79.3203 196.193 79.7086 197.469 80.1524Z" fill="#009FAF"/>
<path d="M160.582 76.7688C159.695 77.157 158.308 78.2109 157.531 79.043C156.311 80.3188 156.145 81.0398 156.145 84.5898C156.145 88.3063 156.311 88.8055 157.864 90.7469C161.359 95.0734 164.687 96.2938 168.292 94.5742C171.731 92.9656 173.34 89.2492 172.508 84.9227C171.454 78.9875 165.13 74.6609 160.582 76.7688ZM165.519 83.8133C168.514 87.3078 166.295 91.4125 163.245 88.0289C161.691 86.3648 161.248 84.5898 161.969 83.2031C162.801 81.65 163.855 81.8164 165.519 83.8133Z" fill="#009FAF"/>
<path d="M109.773 136.62C103.671 140.669 104.17 151.818 110.605 155.59C114.432 157.809 117.76 157.254 121.033 153.815C128.577 145.883 118.648 130.684 109.773 136.62ZM116.429 142.888C118.537 145.55 117.705 150.875 115.209 150.875C113.434 150.875 112.768 150.265 111.77 147.935C110.938 145.883 111.104 143.553 112.213 142.111C113.101 140.946 115.209 141.334 116.429 142.888Z" fill="#009FAF"/>
<path d="M89.471 139.338C87.1413 139.948 84.4788 142.666 83.7577 145.217C81.8717 152.206 84.978 158.696 91.135 160.36C93.1319 160.859 93.7421 160.804 95.7389 159.861C97.0147 159.195 98.7897 157.753 99.6772 156.644C101.064 154.758 101.23 154.148 101.23 150.376C101.23 147.491 100.898 145.605 100.232 144.385C98.2905 140.724 93.2428 138.339 89.471 139.338ZM92.91 145.106C94.1303 145.605 95.4061 148.268 95.4061 150.431C95.4061 152.816 93.9639 154.869 92.5217 154.647C89.5819 154.203 87.9733 148.268 90.1366 145.883C91.246 144.663 91.5233 144.607 92.91 145.106Z" fill="#009FAF"/>
<path d="M128.299 149.766C124.472 152.095 123.085 158.641 125.415 163.411C128.355 169.513 136.176 169.623 139.227 163.688C143.442 155.423 135.51 145.328 128.299 149.766ZM134.124 156.588C135.011 158.363 134.678 160.36 133.292 161.747C132.404 162.579 132.293 162.579 131.073 161.192C129.686 159.528 129.52 158.363 130.352 156.145C131.073 154.203 133.125 154.425 134.124 156.588Z" fill="#009FAF"/>
<path d="M74.3281 158.973C71.9984 160.97 71 163.078 71 166.184C71 171.121 73.9953 175.226 78.4883 176.446C80.0414 176.89 80.9289 176.779 82.9258 175.891C84.9781 174.948 85.6992 174.283 86.6422 172.175C88.8609 167.127 87.1414 161.192 82.7594 158.752C79.7086 157.032 76.5469 157.143 74.3281 158.973ZM80.3742 164.409C81.3172 165.408 81.5945 166.24 81.4281 168.126C81.2063 170.955 80.0414 171.565 78.2664 169.79C76.4914 168.015 76.8797 163.078 78.7656 163.078C78.9875 163.078 79.7086 163.688 80.3742 164.409Z" fill="#009FAF"/>
<path d="M102.617 160.471C99.6772 161.414 94.3522 167.072 91.6343 172.23C90.303 174.671 88.2507 177.888 87.0858 179.441C84.2569 183.047 83.314 186.819 84.2569 190.979C85.6991 197.469 90.9132 202.405 96.7374 202.905C100.787 203.237 103.449 202.239 106.333 199.299C109.828 195.638 112.213 195.25 116.706 197.469C120.922 199.466 123.529 199.577 127.356 197.802C132.737 195.305 135.787 189.481 135.177 182.88C134.789 178.332 132.681 175.059 128.299 172.23C126.469 170.955 123.196 168.403 121.144 166.462C114.82 160.527 108.774 158.53 102.617 160.471ZM111.88 166.795C112.99 167.294 115.652 169.346 117.816 171.343C119.979 173.34 123.085 175.836 124.638 176.89C128.133 179.275 129.242 181.05 129.242 184.378C129.242 189.315 126.469 193.031 122.808 193.031C121.809 193.031 119.812 192.421 118.37 191.645C113.544 189.093 107.221 190.091 103.283 193.974C100.01 197.302 98.5679 197.746 95.5171 196.581C91.1905 194.973 88.528 188.816 90.5249 185.099C90.8577 184.434 92.078 182.603 93.2429 181.105C94.3522 179.552 96.0718 176.723 97.0147 174.837C98.0132 172.896 99.7882 170.178 101.064 168.847C104.392 165.241 107.387 164.631 111.88 166.795Z" fill="#009FAF"/>
<path d="M205.068 196.082C202.295 197.025 200.353 198.855 199.077 201.629C197.691 204.569 197.802 206.677 199.299 209.395C200.686 211.891 204.402 214.109 207.176 214.109C209.45 214.109 213.499 212.002 214.886 210.116C215.496 209.228 216.051 207.398 216.217 205.567C216.439 203.016 216.217 202.128 215.052 200.076C212.889 196.415 208.784 194.751 205.068 196.082ZM209.117 202.572C209.894 203.404 210.227 204.513 210.227 206.344C210.227 209.339 209.006 211.336 207.176 211.336C204.402 211.336 203.127 205.567 205.29 202.794C206.677 201.019 207.62 200.963 209.117 202.572Z" fill="#009FAF"/>
<path d="M181.938 196.193C178.11 197.635 175.836 201.407 175.836 206.344C175.836 210.393 176.779 212.834 179.053 214.775C183.102 218.159 186.763 217.992 190.424 214.22C192.865 211.724 193.697 209.672 193.641 206.233C193.641 199.688 187.207 194.196 181.938 196.193ZM186.652 202.461C188.205 204.18 188.372 208.008 186.93 209.783C185.543 211.558 184.156 211.78 182.936 210.338C180.384 207.453 181.827 201.463 185.044 201.352C185.377 201.352 186.098 201.851 186.652 202.461Z" fill="#009FAF"/>
<path d="M166.739 211.891C161.913 213.388 159.473 220.155 161.913 225.536C164.576 231.36 171.287 232.858 174.948 228.476C180.883 221.487 174.893 209.45 166.739 211.891ZM170.566 218.769C171.731 220.544 171.454 224.038 170.123 224.87C167.959 226.146 166.018 221.32 167.515 218.491C168.292 217.049 169.512 217.16 170.566 218.769Z" fill="#009FAF"/>
<path d="M220.211 212.334C216.661 213.943 214.664 217.16 214.664 221.487C214.664 225.148 215.552 227.2 217.937 229.252C220.266 231.194 222.43 231.582 224.981 230.473C229.141 228.753 230.916 226.035 230.972 221.32C230.972 217.604 229.53 214.387 227.2 212.945C225.48 211.891 221.875 211.613 220.211 212.334ZM224.316 218.325C226.035 219.989 224.815 225.203 222.762 225.203C220.655 225.203 219.878 220.488 221.653 218.491C222.818 217.216 223.206 217.16 224.316 218.325Z" fill="#009FAF"/>
<path d="M190.424 219.601C187.484 220.988 183.712 224.482 180.384 228.809C178.998 230.639 176.668 233.191 175.226 234.522C171.842 237.573 170.289 240.734 170.289 244.673C170.289 250.996 173.118 256.044 177.999 258.595C182.77 261.091 187.429 260.481 192.033 256.765C194.196 254.99 198.023 255.156 200.52 257.098C205.068 260.537 209.339 261.036 213.998 258.706C217.327 257.042 219.268 254.768 220.821 250.719C223.151 244.562 221.542 238.405 216.439 234.134C214.886 232.802 212.945 230.75 212.112 229.474C209.838 225.98 205.789 221.93 203.127 220.377C199.743 218.38 193.752 218.048 190.424 219.601ZM200.242 225.591C202.572 227.034 204.125 228.642 207.231 232.802C208.84 235.021 210.948 237.351 211.891 238.072C216.883 241.733 217.216 248.389 212.667 252.383C210.337 254.435 207.231 254.657 205.068 252.938C199.743 248.722 193.198 248.555 187.817 252.438C182.77 256.099 177.389 253.215 176.113 246.17C175.614 243.508 177.001 240.679 180.107 238.072C181.438 236.963 183.491 234.688 184.655 232.969C190.258 225.092 195.416 222.652 200.242 225.591Z" fill="#009FAF"/>
</svg>
