<svg width="80" height="20" viewBox="0 0 80 20" fill="none" xmlns="http://www.w3.org/2000/svg">
<path d="M77.305 14.4515C77.2206 14.2124 77.1643 13.9452 77.1362 13.6498C77.1221 13.3545 77.1151 12.9888 77.1151 12.5528C77.1151 12.2434 77.1151 12.0043 77.1151 11.8355C77.1292 11.6526 77.1362 11.4979 77.1362 11.3713C77.1362 11.2307 77.1362 11.0971 77.1362 10.9705C77.1502 10.8298 77.1573 10.64 77.1573 10.4009C77.1573 9.90861 77.1432 9.41635 77.1151 8.92408C77.101 8.41775 77.0307 7.96768 76.9041 7.57387C76.7775 7.16599 76.5806 6.83547 76.3134 6.58231C76.0462 6.32914 75.6594 6.20256 75.1531 6.20256C74.2951 6.20256 73.627 6.61044 73.1488 7.42619C72.6706 8.24194 72.3823 9.54293 72.2839 11.3291C72.2557 11.8917 72.2417 12.4051 72.2417 12.8692C72.2417 13.3334 72.2135 13.7342 72.1573 14.0718C72.101 14.3952 71.9955 14.6484 71.8408 14.8313C71.7002 15.0141 71.4611 15.1055 71.1235 15.1055C70.8141 15.1055 70.5891 15.0282 70.4484 14.8735C70.3078 14.7047 70.2023 14.4585 70.132 14.1351C70.0757 13.8116 70.0405 13.4178 70.0265 12.9536C70.0265 12.4895 70.0054 11.948 69.9632 11.3291C69.921 10.654 69.8507 10.0071 69.7522 9.38822C69.6678 8.76937 69.5201 8.22788 69.3092 7.76374C69.1123 7.28555 68.838 6.9058 68.4864 6.6245C68.1488 6.34321 67.7128 6.20256 67.1784 6.20256C66.672 6.20256 66.2782 6.32914 65.9969 6.58231C65.7297 6.82141 65.5328 7.1449 65.4062 7.55277C65.2796 7.94659 65.2023 8.39666 65.1742 8.90299C65.1601 9.39525 65.1531 9.89455 65.1531 10.4009C65.1531 10.654 65.1531 10.8439 65.1531 10.9705C65.1671 11.083 65.1742 11.1885 65.1742 11.287C65.1742 11.3854 65.1742 11.512 65.1742 11.6667C65.1882 11.8214 65.1953 12.0605 65.1953 12.384C65.1953 12.8481 65.1812 13.249 65.1531 13.5865C65.139 13.9241 65.0898 14.2124 65.0054 14.4515C64.9069 14.7328 64.7733 14.9086 64.6045 14.9789C64.4358 15.0352 64.281 15.0633 64.1404 15.0633C63.7044 15.0633 63.4231 14.9086 63.2965 14.5992C63.1699 14.2898 63.0996 13.8397 63.0855 13.249C63.0855 12.9255 63.0785 12.5668 63.0645 12.173C63.0645 11.7652 63.0645 11.2729 63.0645 10.6962C63.0645 10.4149 63.0645 10.1688 63.0645 9.95784C63.0645 9.74687 63.0645 9.54293 63.0645 9.34602C63.0785 9.14912 63.0855 8.95221 63.0855 8.75531C63.0996 8.54433 63.1137 8.30523 63.1277 8.03801C63.1699 7.18006 63.3246 6.49792 63.5919 5.99159C63.8591 5.4712 64.1756 5.07739 64.5412 4.81016C64.9069 4.54293 65.3007 4.37415 65.7227 4.30383C66.1446 4.21944 66.5314 4.17725 66.883 4.17725C67.6425 4.17725 68.2825 4.28976 68.8028 4.5148C69.3232 4.73983 69.7452 5.03519 70.0687 5.40087C70.4062 5.76656 70.6524 6.18147 70.8071 6.6456C70.9758 7.10974 71.0884 7.5809 71.1446 8.0591C71.2009 7.59497 71.3134 7.13787 71.4822 6.68779C71.665 6.22366 71.9252 5.81578 72.2628 5.46417C72.6144 5.09848 73.0645 4.80313 73.613 4.57809C74.1615 4.35306 74.8366 4.24054 75.6383 4.24054C76.018 4.24054 76.4048 4.28273 76.7986 4.36712C77.2065 4.43744 77.5792 4.60622 77.9168 4.87345C78.2543 5.14068 78.5356 5.52746 78.7607 6.03379C78.9998 6.52605 79.1404 7.19412 79.1826 8.03801C79.1967 8.30523 79.2037 8.54433 79.2037 8.75531C79.2178 8.95221 79.2248 9.14912 79.2248 9.34602C79.2389 9.54293 79.2459 9.74687 79.2459 9.95784C79.2459 10.1688 79.2459 10.4149 79.2459 10.6962C79.2459 11.2729 79.2389 11.7652 79.2248 12.173C79.2248 12.5668 79.2248 12.9255 79.2248 13.249C79.2248 13.5162 79.2107 13.7623 79.1826 13.9874C79.1685 14.2124 79.1263 14.4023 79.056 14.557C78.9857 14.7117 78.8802 14.8383 78.7396 14.9367C78.613 15.0211 78.4231 15.0633 78.1699 15.0633C77.9308 15.0633 77.748 15.0211 77.6214 14.9367C77.4948 14.8383 77.3893 14.6765 77.305 14.4515Z" fill="#006374"/>
<path d="M59.6419 15.1688C59.4169 15.1688 59.234 15.1336 59.0934 15.0633C58.9668 14.9789 58.8683 14.8734 58.798 14.7468C58.7277 14.6202 58.6785 14.4726 58.6503 14.3038C58.6222 14.1209 58.6011 13.9311 58.587 13.7342C58.2354 14.1702 57.7783 14.5359 57.2157 14.8312C56.6672 15.1266 55.964 15.2743 55.106 15.2743C54.5575 15.2743 53.9949 15.1969 53.4183 15.0422C52.8557 14.8734 52.3423 14.5921 51.8782 14.1983C51.414 13.7904 51.0343 13.2489 50.7389 12.5738C50.4436 11.8987 50.2959 11.0478 50.2959 10.0211C50.2959 9.2194 50.3944 8.46694 50.5913 7.76371C50.7882 7.06047 51.0835 6.44866 51.4773 5.92826C51.8852 5.3938 52.3915 4.97186 52.9963 4.66244C53.6011 4.35301 54.3114 4.1983 55.1271 4.1983C55.8444 4.1983 56.4844 4.33192 57.047 4.59915C57.6095 4.85231 58.1159 5.27425 58.5659 5.86497C58.5659 5.69619 58.573 5.52742 58.587 5.35864C58.6011 5.1758 58.6363 5.01406 58.6925 4.87341C58.7628 4.7187 58.8683 4.59915 59.009 4.51476C59.1496 4.41631 59.3395 4.36708 59.5786 4.36708C59.7896 4.36708 59.9865 4.45147 60.1693 4.62024C60.3522 4.78902 60.4576 5.1547 60.4858 5.71729C60.528 6.46272 60.5561 7.13079 60.5702 7.72151C60.5983 8.31223 60.6124 8.92404 60.6124 9.55695C60.6124 10.3305 60.6053 11.0408 60.5913 11.6878C60.5772 12.3347 60.542 13.0239 60.4858 13.7553C60.4576 14.0788 60.4155 14.339 60.3592 14.5359C60.317 14.7187 60.2607 14.8593 60.1904 14.9578C60.1201 15.0422 60.0357 15.0984 59.9372 15.1266C59.8388 15.1547 59.7403 15.1688 59.6419 15.1688ZM58.5027 9.81012C58.5027 9.07875 58.3901 8.481 58.1651 8.01687C57.9541 7.55273 57.6799 7.19408 57.3423 6.94092C57.0188 6.67369 56.6672 6.49085 56.2875 6.3924C55.9077 6.29394 55.5561 6.24472 55.2326 6.24472C54.7263 6.24472 54.2903 6.33614 53.9246 6.51898C53.573 6.70182 53.2846 6.95498 53.0596 7.27847C52.8346 7.5879 52.6658 7.96061 52.5533 8.39662C52.4548 8.81856 52.4056 9.28269 52.4056 9.78902C52.4056 11.0267 52.6728 11.9409 53.2073 12.5316C53.7558 13.1224 54.4942 13.4177 55.4225 13.4177C55.971 13.4177 56.4351 13.3263 56.8149 13.1435C57.2087 12.9465 57.5252 12.6863 57.7643 12.3629C58.0174 12.0394 58.2003 11.6596 58.3128 11.2236C58.4394 10.7736 58.5027 10.3024 58.5027 9.81012Z" fill="#006374"/>
<path d="M43.3507 13.7975C43.2944 13.3052 43.2593 12.7075 43.2452 12.0042C43.2312 11.301 43.2241 10.4501 43.2241 9.45148C43.2241 8.46696 43.2241 7.6723 43.2241 7.06752C43.2382 6.46274 43.2804 5.92828 43.3507 5.46414C43.421 4.88749 43.5265 4.51478 43.6672 4.346C43.8219 4.17722 44.0188 4.09283 44.2579 4.09283C44.4267 4.09283 44.5743 4.1069 44.7009 4.13503C44.8416 4.16316 44.9611 4.22645 45.0596 4.3249C45.1721 4.40929 45.2565 4.53587 45.3127 4.70465C45.369 4.87343 45.3971 5.10549 45.3971 5.40085C45.3971 5.45711 45.4042 5.51337 45.4182 5.56963C45.4182 5.62589 45.4182 5.68918 45.4182 5.7595C45.4323 5.81576 45.4393 5.88608 45.4393 5.97047C45.8191 5.49227 46.248 5.0844 46.7262 4.74684C47.2185 4.40929 47.7741 4.24051 48.3929 4.24051C49.2227 4.24051 49.6376 4.5851 49.6376 5.27427C49.6376 5.52743 49.5814 5.7384 49.4688 5.90718C49.3704 6.07596 49.2227 6.2166 49.0258 6.32912C48.843 6.42757 48.625 6.50493 48.3718 6.56119C48.1327 6.61745 47.8655 6.67371 47.5701 6.72997C47.12 6.81435 46.6981 6.9761 46.3043 7.2152C45.9105 7.44023 45.6433 7.72856 45.5026 8.08018C45.5026 8.34741 45.5026 8.54431 45.5026 8.67089C45.5167 8.79747 45.5237 8.90296 45.5237 8.98735C45.5378 9.07174 45.5448 9.16316 45.5448 9.26161C45.5448 9.36006 45.5448 9.51478 45.5448 9.72575C45.5448 10.443 45.5307 11.1182 45.5026 11.7511C45.4745 12.3699 45.4463 13.045 45.4182 13.7764C45.4042 14.1139 45.362 14.3741 45.2916 14.557C45.2354 14.7398 45.158 14.8805 45.0596 14.9789C44.9752 15.0774 44.8767 15.1336 44.7642 15.1477C44.6517 15.1758 44.5392 15.1899 44.4267 15.1899C44.0328 15.1899 43.7656 15.1055 43.625 14.9367C43.4984 14.7539 43.407 14.3741 43.3507 13.7975Z" fill="#006374"/>
<path d="M35.6375 17.9747C36.2985 17.9747 36.8541 17.8411 37.3041 17.5739C37.7683 17.3207 38.141 16.948 38.4223 16.4557C38.7036 15.9775 38.9005 15.4009 39.013 14.7258C39.1396 14.0366 39.2029 13.263 39.2029 12.4051C39.0763 12.8551 38.8935 13.2349 38.6544 13.5443C38.4153 13.8537 38.134 14.1069 37.8105 14.3038C37.501 14.4867 37.1494 14.6203 36.7556 14.7047C36.3618 14.789 35.9539 14.8312 35.532 14.8312C34.885 14.8312 34.2732 14.7398 33.6965 14.557C33.1199 14.3741 32.6136 14.0858 32.1776 13.692C31.7556 13.2982 31.4181 12.7989 31.1649 12.1941C30.9117 11.5753 30.7852 10.8369 30.7852 9.97892C30.7852 9.1491 30.9047 8.38961 31.1438 7.70044C31.397 6.9972 31.7556 6.39242 32.2198 5.88609C32.698 5.37976 33.2746 4.98595 33.9497 4.70466C34.6248 4.42336 35.3984 4.28271 36.2704 4.28271C36.7345 4.28271 37.1424 4.32491 37.494 4.4093C37.8597 4.49369 38.1832 4.6062 38.4645 4.74685C38.7458 4.8875 38.9919 5.05627 39.2029 5.25318C39.4279 5.45008 39.6319 5.66105 39.8147 5.88609C40.3492 6.5612 40.7359 7.36288 40.975 8.29115C41.2141 9.20536 41.3337 10.3094 41.3337 11.6034C41.3337 12.5598 41.2493 13.5373 41.0805 14.5359C40.9258 15.5345 40.6375 16.4346 40.2155 17.2363C39.7936 18.0521 39.2099 18.7131 38.4645 19.2194C37.7191 19.7398 36.7627 20 35.5953 20C35.3843 20 35.1452 19.986 34.878 19.9578C34.6248 19.9438 34.3576 19.9156 34.0763 19.8734C33.8091 19.8312 33.5418 19.7679 33.2746 19.6836C33.0074 19.6132 32.7612 19.5148 32.5362 19.3882C32.2549 19.2335 32.0299 19.0858 31.8611 18.9452C31.6923 18.8045 31.6079 18.5724 31.6079 18.249C31.6079 17.9817 31.6642 17.7356 31.7767 17.5106C31.9033 17.2996 32.1143 17.1941 32.4096 17.1941C32.5503 17.1941 32.705 17.2363 32.8738 17.3207C33.0425 17.4051 33.2465 17.4895 33.4856 17.5739C33.7387 17.6723 34.0341 17.7637 34.3717 17.8481C34.7233 17.9325 35.1452 17.9747 35.6375 17.9747ZM35.743 12.9114C36.2915 12.9114 36.7556 12.813 37.1354 12.616C37.5292 12.4051 37.8456 12.1308 38.0847 11.7933C38.3379 11.4557 38.5207 11.076 38.6333 10.654C38.7598 10.2321 38.8231 9.81014 38.8231 9.3882C38.8231 9.03658 38.7739 8.68497 38.6755 8.33335C38.5911 7.96767 38.4434 7.63715 38.2324 7.34179C38.0214 7.04643 37.7331 6.80733 37.3674 6.62449C37.0018 6.44165 36.5446 6.35022 35.9961 6.35022C35.0679 6.35022 34.3154 6.63152 33.7387 7.19411C33.1762 7.7567 32.8949 8.58651 32.8949 9.68356C32.8949 10.7103 33.148 11.5049 33.6544 12.0675C34.1607 12.6301 34.8569 12.9114 35.743 12.9114Z" fill="#006374"/>
<path d="M25.1162 13.7131C25.074 12.827 25.0458 11.7792 25.0318 10.5696C25.0318 9.34597 25.0318 7.9606 25.0318 6.41348C24.8911 6.42754 24.7223 6.43458 24.5254 6.43458C24.3426 6.43458 24.1949 6.43458 24.0824 6.43458C23.8292 6.43458 23.5972 6.42754 23.3862 6.41348C23.1893 6.39941 23.0135 6.35722 22.8588 6.2869C22.7041 6.21657 22.5845 6.11812 22.5001 5.99154C22.4157 5.85089 22.3735 5.66102 22.3735 5.42192C22.3735 4.74681 22.8799 4.40926 23.8925 4.40926C24.0472 4.40926 24.2371 4.40926 24.4621 4.40926C24.6872 4.40926 24.877 4.42332 25.0318 4.45145C25.0318 3.70602 25.0458 3.10827 25.074 2.6582C25.1021 2.20813 25.1513 1.86355 25.2216 1.62445C25.306 1.37128 25.4115 1.20954 25.5381 1.13922C25.6787 1.05483 25.8545 1.01263 26.0655 1.01263C26.2906 1.01263 26.4734 1.08999 26.614 1.2447C26.7547 1.39941 26.8602 1.59632 26.9305 1.83542C27.0149 2.07452 27.0641 2.34175 27.0782 2.63711C27.1063 2.93247 27.1204 3.22079 27.1204 3.50209C27.1204 3.69899 27.1133 3.88183 27.0993 4.05061C27.0993 4.20532 27.0993 4.34597 27.0993 4.47255C27.2962 4.41629 27.5001 4.38816 27.7111 4.38816C27.9221 4.3741 28.126 4.36707 28.3229 4.36707C28.8433 4.36707 29.2441 4.45145 29.5254 4.62023C29.8067 4.77494 29.9474 5.03514 29.9474 5.40082C29.9474 5.62586 29.8981 5.8087 29.7997 5.94934C29.7012 6.07593 29.5676 6.17438 29.3989 6.2447C29.2441 6.31503 29.0543 6.36425 28.8292 6.39238C28.6183 6.40645 28.3862 6.41348 28.133 6.41348C27.9924 6.41348 27.8306 6.41348 27.6478 6.41348C27.465 6.41348 27.2962 6.39941 27.1415 6.37128C27.1415 7.11671 27.1415 7.79885 27.1415 8.4177C27.1415 9.03655 27.1344 9.63429 27.1204 10.2109C27.1063 10.7735 27.0922 11.3361 27.0782 11.8987C27.0641 12.4613 27.043 13.059 27.0149 13.692C27.0008 14.0295 26.9657 14.2897 26.9094 14.4726C26.8672 14.6554 26.8039 14.796 26.7195 14.8945C26.6351 14.9929 26.5367 15.0562 26.4242 15.0844C26.3257 15.0984 26.2062 15.1055 26.0655 15.1055C25.8124 15.1055 25.5944 15.0211 25.4115 14.8523C25.2427 14.6695 25.1443 14.2897 25.1162 13.7131Z" fill="#006374"/>
<path d="M16.8851 11.2026C16.3928 11.2026 15.8724 11.1674 15.3239 11.0971C14.7894 11.0127 14.2057 10.8439 13.5728 10.5908C13.6994 11.4487 14.051 12.0957 14.6277 12.5317C15.2184 12.9677 16.0623 13.1857 17.1593 13.1857C17.5531 13.1857 17.9047 13.1646 18.2142 13.1224C18.5377 13.0661 18.8189 13.0099 19.058 12.9536C19.2971 12.8833 19.5081 12.827 19.691 12.7848C19.8738 12.7286 20.0426 12.7005 20.1973 12.7005C20.3942 12.7005 20.5841 12.7638 20.7669 12.8903C20.9497 13.0029 21.0412 13.1998 21.0412 13.4811C21.0412 13.8327 20.8935 14.121 20.5981 14.346C20.3168 14.5711 19.9652 14.7539 19.5433 14.8946C19.1354 15.0211 18.6994 15.1055 18.2353 15.1477C17.7711 15.204 17.3633 15.2321 17.0116 15.2321C16.1818 15.2321 15.4153 15.1196 14.7121 14.8946C14.0229 14.6695 13.4251 14.332 12.9188 13.8819C12.4125 13.4178 12.0187 12.8481 11.7374 12.173C11.4561 11.4979 11.3154 10.7103 11.3154 9.81016C11.3154 8.93815 11.449 8.1646 11.7163 7.48949C11.9976 6.81438 12.3773 6.24476 12.8555 5.78063C13.3337 5.31649 13.8963 4.96488 14.5433 4.72578C15.2043 4.48668 15.9146 4.36713 16.6741 4.36713C17.2648 4.36713 17.8344 4.44448 18.3829 4.59919C18.9455 4.75391 19.4378 4.98597 19.8597 5.2954C20.2957 5.60482 20.6403 5.99863 20.8935 6.47683C21.1607 6.94097 21.2943 7.48949 21.2943 8.1224C21.2943 8.68499 21.1889 9.16319 20.9779 9.557C20.7669 9.95081 20.4645 10.2673 20.0707 10.5064C19.691 10.7455 19.2268 10.9213 18.6783 11.0338C18.1438 11.1463 17.5461 11.2026 16.8851 11.2026ZM16.7374 6.30805C16.3576 6.30805 15.9919 6.35728 15.6403 6.45573C15.2887 6.54012 14.9652 6.6878 14.6699 6.89877C14.3886 7.09568 14.1495 7.36291 13.9526 7.70046C13.7557 8.02395 13.622 8.43182 13.5517 8.92409C14.0862 9.16319 14.6066 9.33197 15.1129 9.43042C15.6192 9.51481 16.1537 9.557 16.7163 9.557C17.5461 9.557 18.1579 9.45855 18.5517 9.26164C18.9596 9.05067 19.1635 8.67796 19.1635 8.1435C19.1635 7.65123 18.9737 7.22226 18.5939 6.85658C18.2282 6.4909 17.6094 6.30805 16.7374 6.30805Z" fill="#006374"/>
<path d="M2.1097 13.7553C2.1097 14.0928 2.07454 14.353 2.00422 14.5359C1.94796 14.7187 1.87061 14.8594 1.77215 14.9578C1.68776 15.0563 1.58228 15.1125 1.4557 15.1266C1.34318 15.1547 1.23066 15.1688 1.11814 15.1688C0.738397 15.1688 0.485232 15.0844 0.35865 14.9156C0.246132 14.7468 0.168776 14.3671 0.126582 13.7764C0.0984529 13.4669 0.0773559 13.0169 0.0632912 12.4262C0.0492265 11.8354 0.0351618 11.1322 0.0210971 10.3165C0.0210971 9.5007 0.0140647 8.60056 0 7.61603C0 6.63151 0 5.59072 0 4.49367C0 3.97328 0.0632912 3.44585 0.189874 2.91139C0.316456 2.37693 0.555556 1.8917 0.907173 1.4557C1.27286 1.01969 1.77215 0.668073 2.40506 0.400844C3.05204 0.133615 3.88889 0 4.91561 0C5.63291 0 6.31505 0.0773557 6.96203 0.232067C7.609 0.386779 8.17862 0.654009 8.67089 1.03376C9.16315 1.4135 9.55696 1.91983 9.85232 2.55274C10.1477 3.18565 10.2954 3.97328 10.2954 4.91561C10.2954 5.90014 10.1336 6.71589 9.81013 7.36287C9.48664 8.00985 9.02954 8.52321 8.43882 8.90296C7.8481 9.2827 7.14487 9.54993 6.32911 9.70464C5.51336 9.85935 4.62025 9.93671 3.64979 9.93671C3.41069 9.93671 3.17159 9.93671 2.93249 9.93671C2.69339 9.93671 2.42616 9.92265 2.1308 9.89452L2.1097 13.7553ZM8.18566 4.87342C8.18566 3.93108 7.91843 3.22082 7.38397 2.74262C6.86357 2.26442 5.99156 2.02532 4.76793 2.02532C4.3038 2.02532 3.90295 2.06751 3.5654 2.1519C3.24191 2.22222 2.97468 2.35584 2.76371 2.55274C2.55274 2.73558 2.391 2.98875 2.27848 3.31224C2.18003 3.63573 2.1308 4.0436 2.1308 4.53587C2.1308 5.01407 2.1308 5.56259 2.1308 6.18144C2.1308 6.78622 2.13783 7.35584 2.1519 7.8903C2.47539 7.90436 2.83404 7.91139 3.22785 7.91139C3.63573 7.91139 4.01547 7.91139 4.36709 7.91139C4.78903 7.91139 5.22504 7.88326 5.67511 7.827C6.13924 7.77075 6.55415 7.64416 6.91983 7.44726C7.28551 7.23629 7.58791 6.9339 7.82701 6.54008C8.06611 6.13221 8.18566 5.57665 8.18566 4.87342Z" fill="#006374"/>
</svg>
